{
  "accessors": [
    {
      "bufferView": 2,
      "componentType": 5126,
      "count": 6279,
      "max": [
        10.16529655456543,
        7.3020825386047363,
        0.26617869734764099
      ],
      "min": [
        -10.140140533447266,
        -7.3139133453369141,
        -0.64560264348983765
      ],
      "type": "VEC3"
    },
    {
      "bufferView": 2,
      "byteOffset": 75348,
      "componentType": 5126,
      "count": 6279,
      "max": [
        1,
        1,
        0.9998505711555481
      ],
      "min": [
        -1,
        -0.99985098838806152,
        -0.9999997615814209
      ],
      "type": "VEC3"
    },
    {
      "bufferView": 3,
      "componentType": 5126,
      "count": 6279,
      "max": [
        1,
        0.58916127681732178,
        0.99995070695877075,
        1
      ],
      "min": [
        -0.052708655595779419,
        -0.58916491270065308,
        -0.99998658895492554,
        -1
      ],
      "type": "VEC4"
    },
    {
      "bufferView": 1,
      "componentType": 5126,
      "count": 6279,
      "max": [
        0.42098864912986755,
        0.51867389678955078
      ],
      "min": [
        0,
        0
      ],
      "type": "VEC2"
    },
    {
      "bufferView": 0,
      "componentType": 5125,
      "count": 17100,
      "max": [
        6278
      ],
      "min": [
        0
      ],
      "type": "SCALAR"
    },
    {
      "bufferView": 2,
      "byteOffset": 150696,
      "componentType": 5126,
      "count": 6378,
      "max": [
        10.108919143676758,
        7.6003260612487793,
        0.62067234516143799
      ],
      "min": [
        -10.083763122558594,
        -7.3007750511169434,
        -0.31019747257232666
      ],
      "type": "VEC3"
    },
    {
      "bufferView": 2,
      "byteOffset": 227232,
      "componentType": 5126,
      "count": 6378,
      "max": [
        1,
        1,
        1
      ],
      "min": [
        -1,
        -1,
        -1
      ],
      "type": "VEC3"
    },
    {
      "bufferView": 3,
      "byteOffset": 100464,
      "componentType": 5126,
      "count": 6378,
      "max": [
        1,
        0.47731766104698181,
        0.99995952844619751,
        1
      ],
      "min": [
        0,
        -0.51120585203170776,
        -0.99995952844619751,
        -1
      ],
      "type": "VEC4"
    },
    {
      "bufferView": 1,
      "byteOffset": 50232,
      "componentType": 5126,
      "count": 6378,
      "max": [
        0.94934558868408203,
        0.87914055585861206
      ],
      "min": [
        0,
        0
      ],
      "type": "VEC2"
    },
    {
      "bufferView": 0,
      "byteOffset": 68400,
      "componentType": 5125,
      "count": 19038,
      "max": [
        6377
      ],
      "min": [
        0
      ],
      "type": "SCALAR"
    },
    {
      "bufferView": 2,
      "byteOffset": 303768,
      "componentType": 5126,
      "count": 112,
      "max": [
        9.1735324859619141,
        5.5975842475891113,
        0.22023805975914001
      ],
      "min": [
        -10.133780479431152,
        -2.2099616527557373,
        -0.18635754287242889
      ],
      "type": "VEC3"
    },
    {
      "bufferView": 2,
      "byteOffset": 305112,
      "componentType": 5126,
      "count": 112,
      "max": [
        0.93529576063156128,
        0.99985063076019287,
        0.988666832447052
      ],
      "min": [
        -1,
        -0.99985063076019287,
        -0.98866677284240723
      ],
      "type": "VEC3"
    },
    {
      "bufferView": 3,
      "byteOffset": 202512,
      "componentType": 5126,
      "count": 112,
      "max": [
        0.99999558925628662,
        0.707000732421875,
        0.49963685870170593,
        1
      ],
      "min": [
        0,
        -0.70700055360794067,
        -0.98859083652496338,
        -1
      ],
      "type": "VEC4"
    },
    {
      "bufferView": 1,
      "byteOffset": 101256,
      "componentType": 5126,
      "count": 112,
      "max": [
        0.70729517936706543,
        0.76445239782333374
      ],
      "min": [
        0,
        0
      ],
      "type": "VEC2"
    },
    {
      "bufferView": 0,
      "byteOffset": 144552,
      "componentType": 5125,
      "count": 360,
      "max": [
        111
      ],
      "min": [
        0
      ],
      "type": "SCALAR"
    },
    {
      "bufferView": 2,
      "byteOffset": 306456,
      "componentType": 5126,
      "count": 20,
      "max": [
        -10.068595886230469,
        -1.6341118812561035,
        0.024000495672225952
      ],
      "min": [
        -10.125791549682617,
        -2.2068555355072021,
        -0.037502095103263855
      ],
      "type": "VEC3"
    },
    {
      "bufferView": 2,
      "byteOffset": 306696,
      "componentType": 5126,
      "count": 20,
      "max": [
        0.058991126716136932,
        0.86289572715759277,
        0.99164646863937378
      ],
      "min": [
        -0.99491369724273682,
        -0.85947835445404053,
        -0.99766892194747925
      ],
      "type": "VEC3"
    },
    {
      "bufferView": 3,
      "byteOffset": 204304,
      "componentType": 5126,
      "count": 20,
      "max": [
        0.99825674295425415,
        0.0021544201299548149,
        0.12447041273117065,
        1
      ],
      "min": [
        0.031518734991550446,
        -0.0018734782934188843,
        -0.99950146675109863,
        -1
      ],
      "type": "VEC4"
    },
    {
      "bufferView": 1,
      "byteOffset": 102152,
      "componentType": 5126,
      "count": 20,
      "max": [
        0.29552623629570007,
        0.46326339244842529
      ],
      "min": [
        0.2951715886592865,
        0.45971199870109558
      ],
      "type": "VEC2"
    },
    {
      "bufferView": 0,
      "byteOffset": 145992,
      "componentType": 5125,
      "count": 30,
      "max": [
        19
      ],
      "min": [
        0
      ],
      "type": "SCALAR"
    },
    {
      "bufferView": 2,
      "byteOffset": 306936,
      "componentType": 5126,
      "count": 204,
      "max": [
        0.32034146785736084,
        -2.0143806934356689,
        0.12867945432662964
      ],
      "min": [
        -4.9744491577148438,
        -6.0307121276855469,
        0.050296925008296967
      ],
      "type": "VEC3"
    },
    {
      "bufferView": 2,
      "byteOffset": 309384,
      "componentType": 5126,
      "count": 204,
      "max": [
        1,
        0.99985033273696899,
        0.99985063076019287
      ],
      "min": [
        -1,
        -0.99984961748123169,
        -0.017357539385557175
      ],
      "type": "VEC3"
    },
    {
      "bufferView": 3,
      "byteOffset": 204624,
      "componentType": 5126,
      "count": 204,
      "max": [
        1,
        0.17955528199672699,
        0.9999690055847168,
        1
      ],
      "min": [
        0,
        -0.17956638336181641,
        -0.9999690055847168,
        -1
      ],
      "type": "VEC4"
    },
    {
      "bufferView": 1,
      "byteOffset": 102312,
      "componentType": 5126,
      "count": 204,
      "max": [
        0.3599432110786438,
        0.46090546250343323
      ],
      "min": [
        0.32711192965507507,
        0.4360014796257019
      ],
      "type": "VEC2"
    },
    {
      "bufferView": 0,
      "byteOffset": 146112,
      "componentType": 5125,
      "count": 312,
      "max": [
        203
      ],
      "min": [
        0
      ],
      "type": "SCALAR"
    },
    {
      "bufferView": 2,
      "byteOffset": 311832,
      "componentType": 5126,
      "count": 322,
      "max": [
        9.6206941604614258,
        -0.0098028304055333138,
        1.1408370733261108
      ],
      "min": [
        -9.6206941604614258,
        -0.019932279363274574,
        0.84768742322921753
      ],
      "type": "VEC3"
    },
    {
      "bufferView": 2,
      "byteOffset": 315696,
      "componentType": 5126,
      "count": 322,
      "max": [
        0.98602932691574097,
        0.13941600918769836,
        0.99515926837921143
      ],
      "min": [
        -0.9860350489616394,
        -1,
        -0.99515879154205322
      ],
      "type": "VEC3"
    },
    {
      "bufferView": 3,
      "byteOffset": 207888,
      "componentType": 5126,
      "count": 322,
      "max": [
        0,
        0,
        0,
        1
      ],
      "min": [
        0,
        0,
        0,
        1
      ],
      "type": "VEC4"
    },
    {
      "bufferView": 1,
      "byteOffset": 103944,
      "componentType": 5126,
      "count": 322,
      "max": [
        0,
        0
      ],
      "min": [
        0,
        0
      ],
      "type": "VEC2"
    },
    {
      "bufferView": 0,
      "byteOffset": 147360,
      "componentType": 5125,
      "count": 576,
      "max": [
        321
      ],
      "min": [
        0
      ],
      "type": "SCALAR"
    },
    {
      "bufferView": 2,
      "byteOffset": 319560,
      "componentType": 5126,
      "count": 395,
      "max": [
        10.091934204101562,
        0.52740854024887085,
        14.447467803955078
      ],
      "min": [
        -10.091934204101562,
        -0.11729240417480469,
        -0.016221856698393822
      ],
      "type": "VEC3"
    },
    {
      "bufferView": 2,
      "byteOffset": 324300,
      "componentType": 5126,
      "count": 395,
      "max": [
        1,
        0.99980640411376953,
        0.99997627735137939
      ],
      "min": [
        -1,
        -0.99998933076858521,
        -0.99998927116394043
      ],
      "type": "VEC3"
    },
    {
      "bufferView": 3,
      "byteOffset": 213040,
      "componentType": 5126,
      "count": 395,
      "max": [
        0,
        0,
        0,
        1
      ],
      "min": [
        0,
        0,
        0,
        1
      ],
      "type": "VEC4"
    },
    {
      "bufferView": 1,
      "byteOffset": 106520,
      "componentType": 5126,
      "count": 395,
      "max": [
        0,
        0
      ],
      "min": [
        0,
        0
      ],
      "type": "VEC2"
    },
    {
      "bufferView": 0,
      "byteOffset": 149664,
      "componentType": 5125,
      "count": 1620,
      "max": [
        394
      ],
      "min": [
        0
      ],
      "type": "SCALAR"
    },
    {
      "bufferView": 2,
      "byteOffset": 329040,
      "componentType": 5126,
      "count": 6,
      "max": [
        9.1705045700073242,
        0.054333336651325226,
        12.784076690673828
      ],
      "min": [
        -9.1705045700073242,
        0.032999243587255478,
        1.5792895555496216
      ],
      "type": "VEC3"
    },
    {
      "bufferView": 2,
      "byteOffset": 329112,
      "componentType": 5126,
      "count": 6,
      "max": [
        0,
        -0.99999821186065674,
        -0.0019040122861042619
      ],
      "min": [
        0,
        -0.99999827146530151,
        -0.0019040125189349055
      ],
      "type": "VEC3"
    },
    {
      "bufferView": 3,
      "byteOffset": 219360,
      "componentType": 5126,
      "count": 6,
      "max": [
        1,
        3.9809663898715542e-10,
        3.1362353070107929e-07,
        -1
      ],
      "min": [
        1,
        -5.9714416744682808e-10,
        -2.090826427547654e-07,
        -1
      ],
      "type": "VEC4"
    },
    {
      "bufferView": 1,
      "byteOffset": 109680,
      "componentType": 5126,
      "count": 6,
      "max": [
        0.99992179870605469,
        0.99708223342895508
      ],
      "min": [
        7.8141689300537109e-05,
        0.0023206472396850586
      ],
      "type": "VEC2"
    },
    {
      "bufferView": 0,
      "byteOffset": 156144,
      "componentType": 5125,
      "count": 12,
      "max": [
        5
      ],
      "min": [
        0
      ],
      "type": "SCALAR"
    }
  ],
  "asset": {
    "extras": {
      "author": "edouard77 (https://sketchfab.com/edouard77)",
      "license": "CC-BY-4.0 (http://creativecommons.org/licenses/by/4.0/)",
      "source": "https://sketchfab.com/3d-models/laptop-d7459b8ceaab4ce09230cee0b85b5e4b",
      "title": "Laptop"
    },
    "generator": "Sketchfab-5.93.0",
    "version": "2.0"
  },
  "bufferViews": [
    {
      "buffer": 0,
      "byteLength": 156192,
      "byteOffset": 0,
      "name": "floatBufferViews",
      "target": 34963
    },
    {
      "buffer": 0,
      "byteLength": 109728,
      "byteOffset": 156192,
      "byteStride": 8,
      "name": "floatBufferViews",
      "target": 34962
    },
    {
      "buffer": 0,
      "byteLength": 329184,
      "byteOffset": 265920,
      "byteStride": 12,
      "name": "floatBufferViews",
      "target": 34962
    },
    {
      "buffer": 0,
      "byteLength": 219456,
      "byteOffset": 595104,
      "byteStride": 16,
      "name": "floatBufferViews",
      "target": 34962
    }
  ],
  "buffers": [
    {
      "byteLength": 814560,
      "uri": "scene.bin"
    }
  ],
  "images": [
    {
      "uri": "textures/Black_Keys_baseColor.jpeg"
    },
    {
      "uri": "textures/Ecran_baseColor.jpeg"
    }
  ],
  "materials": [
    {
      "doubleSided": true,
      "emissiveFactor": [
        0,
        0,
        0
      ],
      "name": "Black_Keys.002",
      "pbrMetallicRoughness": {
        "baseColorFactor": [
          0,
          0,
          0,
          1
        ],
        "metallicFactor": 0,
        "roughnessFactor": 0.83082059784950979
      }
    },
    {
      "doubleSided": true,
      "emissiveFactor": [
        0,
        0,
        0
      ],
      "name": "Black_Keys",
      "pbrMetallicRoughness": {
        "baseColorFactor": [
          1,
          1,
          1,
          1
        ],
        "baseColorTexture": {
          "index": 0,
          "texCoord": 0
        },
        "metallicFactor": 0,
        "roughnessFactor": 0.83082059784950979
      }
    },
    {
      "doubleSided": true,
      "emissiveFactor": [
        0,
        0,
        0
      ],
      "name": "Black_Keys.001",
      "pbrMetallicRoughness": {
        "baseColorFactor": [
          0.80000000000000004,
          0.80000000000000004,
          0.80000000000000004,
          1
        ],
        "metallicFactor": 0,
        "roughnessFactor": 0.83082059784950979
      }
    },
    {
      "doubleSided": true,
      "emissiveFactor": [
        0,
        0,
        0
      ],
      "name": "side_slot",
      "pbrMetallicRoughness": {
        "baseColorFactor": [
          0.048134099999999999,
          0.144483,
          0.15476899999999999,
          1
        ],
        "metallicFactor": 0,
        "roughnessFactor": 0.9736203056157211
      }
    },
    {
      "doubleSided": true,
      "emissiveFactor": [
        0,
        0,
        0
      ],
      "name": "Black_Plastic_ROUGH",
      "pbrMetallicRoughness": {
        "baseColorFactor": [
          0.019708368943048015,
          0.019708368943048015,
          0.019708368943048015,
          1
        ],
        "metallicFactor": 0.98951981707317072,
        "roughnessFactor": 0.83082059784950979
      }
    },
    {
      "doubleSided": true,
      "emissiveFactor": [
        0,
        0,
        0
      ],
      "name": "Material.002",
      "pbrMetallicRoughness": {
        "baseColorFactor": [
          0.80000000000000004,
          0.80000000000000004,
          0.80000000000000004,
          1
        ],
        "metallicFactor": 0,
        "roughnessFactor": 0.83082059784950979
      }
    },
    {
      "doubleSided": true,
      "emissiveFactor": [
        1,
        1,
        1
      ],
      "emissiveTexture": {
        "index": 1,
        "texCoord": 0
      },
      "name": "Ecran",
      "pbrMetallicRoughness": {
        "baseColorFactor": [
          1,
          1,
          1,
          1
        ],
        "baseColorTexture": {
          "index": 1,
          "texCoord": 0
        },
        "metallicFactor": 0,
        "roughnessFactor": 0.78091097699793355
      }
    }
  ],
  "meshes": [
    {
      "name": "Laptop_Keyboard_Black Keys.002_0",
      "primitives": [
        {
          "attributes": {
            "NORMAL": 1,
            "POSITION": 0,
            "TANGENT": 2,
            "TEXCOORD_0": 3
          },
          "indices": 4,
          "material": 0,
          "mode": 4
        }
      ]
    },
    {
      "name": "Laptop_Keyboard_Black Keys_0",
      "primitives": [
        {
          "attributes": {
            "NORMAL": 6,
            "POSITION": 5,
            "TANGENT": 7,
            "TEXCOORD_0": 8
          },
          "indices": 9,
          "material": 1,
          "mode": 4
        }
      ]
    },
    {
      "name": "Laptop_Keyboard_Black Keys.001_0",
      "primitives": [
        {
          "attributes": {
            "NORMAL": 11,
            "POSITION": 10,
            "TANGENT": 12,
            "TEXCOORD_0": 13
          },
          "indices": 14,
          "material": 2,
          "mode": 4
        }
      ]
    },
    {
      "name": "Laptop_Keyboard_side slot_0",
      "primitives": [
        {
          "attributes": {
            "NORMAL": 16,
            "POSITION": 15,
            "TANGENT": 17,
            "TEXCOORD_0": 18
          },
          "indices": 19,
          "material": 3,
          "mode": 4
        }
      ]
    },
    {
      "name": "Laptop_Keyboard_Black Plastic ROUGH_0",
      "primitives": [
        {
          "attributes": {
            "NORMAL": 21,
            "POSITION": 20,
            "TANGENT": 22,
            "TEXCOORD_0": 23
          },
          "indices": 24,
          "material": 4,
          "mode": 4
        }
      ]
    },
    {
      "name": "Laptop_Screen_Material.002_0",
      "primitives": [
        {
          "attributes": {
            "NORMAL": 26,
            "POSITION": 25,
            "TANGENT": 27,
            "TEXCOORD_0": 28
          },
          "indices": 29,
          "material": 5,
          "mode": 4
        }
      ]
    },
    {
      "name": "Laptop_Screen_Black Keys_0",
      "primitives": [
        {
          "attributes": {
            "NORMAL": 31,
            "POSITION": 30,
            "TANGENT": 32,
            "TEXCOORD_0": 33
          },
          "indices": 34,
          "material": 1,
          "mode": 4
        }
      ]
    },
    {
      "name": "Laptop_Screen_Ecran_0",
      "primitives": [
        {
          "attributes": {
            "NORMAL": 36,
            "POSITION": 35,
            "TANGENT": 37,
            "TEXCOORD_0": 38
          },
          "indices": 39,
          "material": 6,
          "mode": 4
        }
      ]
    }
  ],
  "nodes": [
    {
      "children": [
        1
      ],
      "name": "RootNode (gltf orientation matrix)",
      "rotation": [
        -0.70710678118654746,
        -0,
        -0,
        0.70710678118654757
      ]
    },
    {
      "children": [
        2
      ],
      "name": "RootNode (model correction matrix)"
    },
    {
      "children": [
        3
      ],
      "matrix": [
        1,
        0,
        0,
        0,
        0,
        0,
        1,
        0,
        0,
        -1,
        0,
        0,
        0,
        0,
        0,
        1
      ],
      "name": "8ea79401e36c4f0b802a3bc542278109.fbx"
    },
    {
      "children": [
        4
      ],
      "name": "RootNode"
    },
    {
      "children": [
        5,
        6,
        7,
        8,
        9,
        10
      ],
      "matrix": [
        100,
        0,
        0,
        0,
        -0,
        -1.6292067939183141e-05,
        -99.999999999998678,
        0,
        0,
        99.999999999998678,
        -1.6292067939183141e-05,
        0,
        -4.3266534805297852,
        79.138374328613281,
        -0.24242401123046875,
        1
      ],
      "name": "Laptop_Keyboard"
    },
    {
      "mesh": 0,
      "name": "Laptop_Keyboard_Black Keys.002_0"
    },
    {
      "mesh": 1,
      "name": "Laptop_Keyboard_Black Keys_0"
    },
    {
      "mesh": 2,
      "name": "Laptop_Keyboard_Black Keys.001_0"
    },
    {
      "mesh": 3,
      "name": "Laptop_Keyboard_side slot_0"
    },
    {
      "mesh": 4,
      "name": "Laptop_Keyboard_Black Plastic ROUGH_0"
    },
    {
      "children": [
        11,
        12,
        13
      ],
      "matrix": [
        1,
        0,
        0,
        0,
        0,
        1,
        -2.646977960169688e-23,
        0,
        0,
        2.646977960169688e-23,
        1,
        0,
        0.016262292861938477,
        7.3068952560424805,
        0.32724058628082275,
        1
      ],
      "name": "Laptop_Screen"
    },
    {
      "mesh": 5,
      "name": "Laptop_Screen_Material.002_0"
    },
    {
      "mesh": 6,
      "name": "Laptop_Screen_Black Keys_0"
    },
    {
      "mesh": 7,
      "name": "Laptop_Screen_Ecran_0"
    }
  ],
  "samplers": [
    {
      "magFilter": 9729,
      "minFilter": 9987,
      "wrapS": 10497,
      "wrapT": 10497
    }
  ],
  "scene": 0,
  "scenes": [
    {
      "name": "OSG_Scene",
      "nodes": [
        0
      ]
    }
  ],
  "textures": [
    {
      "sampler": 0,
      "source": 0
    },
    {
      "sampler": 0,
      "source": 1
    }
  ]
}

