<?xml version="1.0" encoding="utf-8"?>
<!-- Generator: Adobe Illustrator 25.1.0, SVG Export Plug-In . SVG Version: 6.00 Build 0)  -->
<svg version="1.1" xmlns="http://www.w3.org/2000/svg" xmlns:xlink="http://www.w3.org/1999/xlink" x="0px" y="0px"
	 viewBox="0 0 1800 2339" style="enable-background:new 0 0 1800 2339;" xml:space="preserve">
<style type="text/css">
	.st0{fill:none;stroke:#000000;stroke-miterlimit:10;}
</style>
<g id="profile">
	<path class="st0" d="M492.55,481.86C462,514,419,507,382,497c-111-50-128.07-189.22-113.03-261.61s79.66-131.87,99.77-148.68
		C394.13,63.84,424.76,49.54,458,43c94.45-18.58,220.02-2.4,289,78c19.35,23.23,35,56,43.24,79.9c9,26.1,14.14,53.69,15.55,81.2
		c0.51,1.79,1.58,7.46,0.82,9.24c-1.97,3.22-3.78,6.72-5.02,10.23c-1.78,2.51-5.33,20.52-4.19,23.47c0.06,9.41,3.84,18.3,8.38,26.43
		c13.29,29.42,32.14,56.16,47.26,84.52c-2.86,4.52-5.57,9.31-10.27,12.23c-3.11,3.84-6.22,8.32-11,10.33
		c-1.25-0.07-25.2,2.27-36.38,1.91c-3.35,0.73-6.78,0.67-9.66,2.6"/>
	<path class="st0" d="M538.6,439.06c-7.77,8.9-21.06,11.56-32.1,13.56c-26.22,1.57-45.74-22.82-55.8-44.41
		c-10.86-24.47-23.66-49.63-23.65-76.78c-0.06-15.45-1.01-32.87,9.98-45.12c8.92-10.96,21.48-20.59,36.06-21.06
		c10.33-1.81,21.88-0.86,30.48,5.98c15.22,14.63,27.87,34.82,29.15,56.28c1.89,24.46-0.4,49.59,2.66,74.08
		c1.79,26.15,5.31,52.29,6.77,78.58c2.01,17.92,2.46,36.05,3.89,53.93c1.26,21.54,9.15,38.58,31.91,43.26
		C617.5,595.5,664.5,609.5,700.4,614c20.1,5.5,51.52,5.79,76.92,10.87c3.19,0.23,6.31,0.24,9.37,1c2.99-1.75,6.8,0.09,9.38-2.3
		c6.24-7.99,12.3-15.94,17.02-24.98c10.28-14.43-7.21-25.41-13.31-37.1c-5.5-18.31-1.14-38.14-0.15-56.87
		c2.01-14.28,2.37-28.61,4.22-42.87"/>
	<path class="st0" d="M798.67,294.43c-8.4,2.1-17.32,0.64-25.89,1.44c-7.74,1.04-15.12,1.19-22.75,2.45
		c-1.67-0.02-2.29-0.14-3.41,1.12c-5.76,4.65-13,7.57-19.19,11.74c-11.81,6.39-23.81,13.12-33.76,22.02
		c7.06,1.93,29.67,7.12,40.14,7.93"/>
	<path class="st0" d="M657.94,365.12c5.44,17.25,10.24,35.65,14.56,53.38c7.99,26.57,19.86,49.75,35,73
		c13.58,22.83,27.9,43.98,44.96,64.12c11.79,12.64,21.83,27.52,34.43,39.04"/>
	<path class="st0" d="M421.86,130.34c4.45-6.58,14.79-6.89,21.53-10.2c13.73-4.71,27.4-7.25,41.68-8.62
		c30.09-3.19,60.19,2.02,88.98,10.69c20.51,6.76,41.5,12.16,60.9,21.75c25.33,12.3,49.93,27.34,70.67,46.37
		c21.07,23.94,33.92,49.5,43.88,80.16"/>
	<path class="st0" d="M797.37,317.78c-11.1,8.57-21.25,18.52-33.85,25.42c-3.5,1.31-21.02,11.31-21.02,11.31"/>
</g>
<g id="forward">
	<line class="st0" x1="1259.5" y1="5.5" x2="1259.5" y2="670.5"/>
	<line class="st0" x1="967.5" y1="326.5" x2="1515.5" y2="326.5"/>
	<line class="st0" x1="1029.5" y1="464.5" x2="1470.5" y2="464.5"/>
	<line class="st0" x1="1085.5" y1="524.5" x2="1452.5" y2="524.5"/>
	<line class="st0" x1="1147.5" y1="634.5" x2="1425.5" y2="634.5"/>
	<path class="st0" d="M1238.39,33.05c-11.88,2.6-23.9,3.91-35.83,6.66c-25.63,5.01-49.71,17.7-69.27,34.9
		c-48.01,39.37-72.69,102.83-76.53,163.52c-1.01,19.52,3.55,38.88,7.49,57.93c2.2,16.89,8.58,33,13.44,48.97
		c5.19,14.79,0.57,30.27,1.3,45.38c3.34,23.59,13.58,45.44,22.21,67.47c12.77,29.24,26.91,58.23,41.89,86.38
		c6.56,13.12,11.53,27.26,20.72,38.75c6.7,9.06,22.5,37.74,25.94,41.86c2.47,7.75,9.95,10.31,17.48,10.85
		c15.82,4.87,32.48,1.93,48.65,3.78c20.38-0.09,40.72-0.95,60.98,0.21c9.98-0.02,21.6,1.47,30.18-3.89
		c6.87-15.9,16.29-27.8,25.43-42.45c4.2-8.3,33.41-75.42,37.94-102.56c4.32-23.72,9.76-47.32,16.06-70.57
		c8.42-22.01,16.95-44.57,18.17-68.24c-0.31-2.84-1.98-13.45-1.96-14.9c-0.63-3.89-0.39-7.76-1.33-11.53
		c1.27-10.42,1.91-21.25,0.62-31.81c-1.41-24.82-1.29-49.71-1.89-74.54c-0.6-16.8-0.59-33.97-6.48-49.92
		c-8.47-21.98-14.97-45.45-27.87-65.38c-19.25-25.86-41.66-50.5-73.22-60.8c-15.43-6.01-59.98-13.34-60.85-13.3
		C1272.03,29.82,1248.62,31.92,1238.39,33.05z"/>
	<path class="st0" d="M1069.12,309.99c-4.38-8.34-7.01-17.66-17.81-19.48c-3.43-0.11-6.41,1.74-9.28,3.38
		c-4.43,6.35-9.8,12.76-11.15,20.64c-5.73,15.53-5.63,34.13-3.32,50.26c5.9,30.73,21.92,58.49,38.58,84.63
		c6.02,9.67,12.22,22.58,24.03,25.33c2.54-0.2,5.89,0.77,7.97-0.84c2.38-2.11,5.34-4.96,5.35-8.27"/>
	<path class="st0" d="M1442.68,331.4c8.2-11.3,18.14-22.44,30.46-29.2c8.62-2.72,18.95,1.31,20.12,11.05
		c3.05,9.24,1.09,18.03,0.66,27.24c-1.44,16.97-5.62,33.38-12.5,49.11c-10.44,27.38-35.89,79.23-60.18,94.71
		c-2.08,2.27-10.58,6.54-8.4,0.16"/>
	<path class="st0" d="M1119.06,193.25c8.5-7.16,51.01-22.25,61.69-26.3c34.26-12.87,72.07-12.19,108.16-11.82
		c21.45,1.7,66.46,0,83.09,12.83"/>
	<path class="st0" d="M1406.36,162.12c-17.77,30.1-22.47,65.22-25.78,99.47c-1.57,13.36-1.31,26.72-2.25,40.1
		c-0.35,6.93-1.77,15.9,1.95,21.85c0.05-0.2,0.1-0.39,0.14-0.59"/>
	<path class="st0" d="M1104.14,177.69c12.5,26.42,22.38,54.86,26,84.03c1.32,10.22,0.57,20.88,3.84,30.76"/>
	<path class="st0" d="M1414.8,378.09c-4,16.83-9.81,33.34-10.52,50.59c-4.51,23.72-11.1,47.22-18.6,70.23
		c-14.19,48.86-42.04,92.48-63.51,137.91c0.41,0.1,0.59-0.1,0.54-0.6"/>
	<path class="st0" d="M1117.11,354.09c0.39,8.84,6.59,45.25,9.06,54.61c6.39,29.09,18.26,56.13,27.26,84.4
		c11.13,31.87,21.61,64.11,34.64,95.37c2.65,9.73,16.74,41.09,22.34,45.09"/>
	<path class="st0" d="M1294.5,469.5c-5,5-60,5-65,0l21-143h22L1294.5,469.5z"/>
	<rect x="1250.5" y="326.5" class="st0" width="22" height="143"/>
	<polygon class="st0" points="1403.5,356.5 1113.5,354.5 1155.5,306.5 1381.5,306.5 	"/>
</g>
<g id="rotations">
	<line class="st0" x1="1174" y1="1092.5" x2="1257" y2="946.5"/>
	<line class="st0" x1="1146" y1="786.5" x2="1139" y2="827.5"/>
	<line class="st0" x1="1264" y1="932.5" x2="1139" y2="827.5"/>
	<line class="st0" x1="871" y1="1075.5" x2="939" y2="861.5"/>
	<path class="st0" d="M980,1123.5c6-96,116-278,177-306"/>
	<path class="st0" d="M1020,1128.5c0,0,75-253,195-270"/>
	<path class="st0" d="M952,940.5c31-45,241,17,263,30"/>
	<path class="st0" d="M734,955.5c0,0,65-149,220-120"/>
	<path class="st0" d="M1074,1159.5c-94,84-161,82-245,38c-150-80-97.51-272-80.26-302C802,763.5,919,732.5,943,729.5
		c53-11,131,27.99,131,27.99s13-3.99,13,5.01"/>
	<path class="st0" d="M869,1051.5c-70,22-21,75-12,81c87,47,119-20,125.51-29.09"/>
	<polygon class="st0" points="939,886.5 999,863.5 1050,817.5 1059,765.5 970,828.5 	"/>
	<path class="st0" d="M1059,1134.5c-2,5,174-72,174-72l50-141l-47,30C1236,951.5,1062,1123.5,1059,1134.5z"/>
	<path class="st0" d="M1057,779.5c0,0,4-25,6-17s83,24,83,24l-37,66L1057,779.5z"/>
	<path class="st0" d="M1283,921.58c-11-21.08-121.78-104.08-121.78-104.08l-11.22-31h-4"/>
	<path class="st0" d="M831.94,1028c0,0,174.06,79.5,204.06,87.5s174.85-138,174.85-138"/>
	<path class="st0" d="M1020,784.5c-68,33-103,155-103,166"/>
	<path class="st0" d="M945,737.5c24-1,108,25,108,25"/>
	<line class="st0" x1="1074" y1="757.5" x2="1059" y2="765.5"/>
	<path class="st0" d="M1573.5,1278.5c156,52,180-83,180-109c-30.45-202.97-167-176-175.31-176c-131.69,0-169.69,127-188.69,155
		c-19,25-17,125-15,133s28.59,0,28.59,0"/>
	<path class="st0" d="M1467.5,1176.5c0-14,4.51-30.6,9-40c53.01-110.99,74.47,106.87,21,129"/>
	<path class="st0" d="M1619.5,1030.5c97,81,81,215,31.33,259.2c-16.33,10.8-35.33,5.8-35.33,5.8c-7,8-4,48-4,48s-92,147-103,147"/>
	<path class="st0" d="M1671.5,1298.5c-7,15,5,64,5,64s-96,94-122,120c-26,19-79.55,2-78.78,0c0.78-2,44.78-130,55.78-145
		c4-14-9.08-39-9.08-39"/>
	<polyline class="st0" points="1403.5,1246.5 1408.5,1309.5 1475.72,1482.5 	"/>
	<path class="st0" d="M1413.98,1323.6c0,0-0.48,44.9-3.48,54.9s26.25,3.69,26.25,3.69"/>
	<path class="st0" d="M1377.61,1284.38c4.89-23.88,89.89-127.01,89.89-127.01"/>
	<path class="st0" d="M1431.03,1367.48c6.47-19.98,98.47-145.98,113.47-155.98"/>
	<path class="st0" d="M1450.83,1418.44c10.67-42.94,91.67-142.94,98.83-152.94"/>
	<path class="st0" d="M1556.5,1361.5c26,18,99,9,99,9"/>
	<path class="st0" d="M1428.71,1361.5c-5.34,3.08-10.86,5.61-13.3,17.69"/>
	<line class="st0" x1="1459.5" y1="1126.5" x2="1508.5" y2="1327.5"/>
	<path class="st0" d="M1653.5,1918.5c106-92,5-308-84-315c-163-28-230,67-245,79s-51,132-48,142s35,28,35,28s-6,30-10,48
		s77,206,82,210s69-2,75-6s141-88,146-103"/>
	<polygon class="st0" points="1385.5,1904.5 1359.5,1910.5 1371.5,1797.5 1390.5,1797.5 	"/>
	<path class="st0" d="M1431.5,1926.5c-20,2-72,13-72,13v-29l26-6C1385.5,1904.5,1431.5,1919.5,1431.5,1926.5z"/>
	<polygon class="st0" points="1532.5,1820.5 1434.5,1825.5 1385.5,1792.5 1492.5,1783.5 	"/>
	<path class="st0" d="M1506.5,1598.5c-39,20-121,40-129,185"/>
	<path class="st0" d="M1487.5,1770.5c0,0,64-180,160-108"/>
	<path class="st0" d="M1276.5,1838.5c147-104,349-34,349-34"/>
	<path class="st0" d="M1547.5,1837.5c5,18-58,232-64,248"/>
	<path class="st0" d="M1316.5,2016.5c8-13,118-31,118-31"/>
	<path class="st0" d="M1611.5,1985.5c0,0-213,3-243,26"/>
	<line class="st0" x1="1390.5" y1="1933.5" x2="1416.5" y2="2107.5"/>
	<path class="st0" d="M1603.5,1745.5c8,16,8,194-1,253"/>
	<path class="st0" d="M1303.5,1957.5c17-8,152-38,184-35"/>
	<path class="st0" d="M1553.5,1924.5c0,0,102,13,101,23"/>
	<path class="st0" d="M1304.5,1706.5c0,0,59-48,146-54"/>
	<line class="st0" x1="1395.5" y1="1818.5" x2="1428.5" y2="1910.5"/>
	<line class="st0" x1="1316.5" y1="1855.5" x2="1359.5" y2="1838.5"/>
	<path class="st0" d="M1611.5,1804.5c108-114,50,160,0,124"/>
	<path class="st0" d="M207.51,1363.3C79.5,1262.5,122.5,1019.5,250,986.46c169.5-71.96,272.5,32.04,295.45,48.77
		c18.06,13.17,75.05,168.27,67.05,221.27c-1.81,12.01-25.7,5.98-18,26s-47.94,251.54-53,257s-89.41,22.57-97,19
		s-145.67-108.6-154-125"/>
	<polygon class="st0" points="540.5,1410.5 569.38,1404.56 542.5,1282.5 514.29,1279.88 	"/>
	<path class="st0" d="M287.5,980.5c46,7,231,19,239,291"/>
	<path class="st0" d="M416.5,1286.5c0,0-61-319-246-223"/>
	<path class="st0" d="M361.5,1290.5c0,84,74.35,245.62,84,263"/>
	<path class="st0" d="M561.5,1450.5c-20,15-154,35-154,35"/>
	<path class="st0" d="M282.5,1336.5c0,0,49,46,107,70c40,7,92.7,3.75,145-10"/>
	<path class="st0" d="M527.5,1345.5c7,23-23,213-23,213"/>
	<path class="st0" d="M254.5,1224.5c4,16,28,165,55,234"/>
	<line class="st0" x1="512.5" y1="1325.5" x2="498.5" y2="1404.5"/>
	<path class="st0" d="M407.5,1485.5c0,0-102-75-125-92"/>
	<path class="st0" d="M551.5,1078.5c0,0-76-13-190,45"/>
	<path class="st0" d="M254.5,1247.5c13,15,138,50,145,47"/>
	<line class="st0" x1="602.5" y1="1259.5" x2="406.5" y2="1291.5"/>
	<path class="st0" d="M250.5,1244.5c-95-119-39,145,17,152c9,0,4-17,4-17"/>
	<path class="st0" d="M498.5,1404.5c0,0,31,8,42,6"/>
	<path class="st0" d="M266.5,2124.5c17,1,213-64,221-88c3-21-55-59-55-59s-77,19-90,31C333.5,2022.5,255.5,2116.5,266.5,2124.5z"/>
	<path class="st0" d="M127.5,1984.5c-132.08-303.8,240.05-507.54,323-153"/>
	<path class="st0" d="M162.5,1998.5c0,0,79,105,83,111c7,10,26-3,26-3"/>
	<path class="st0" d="M150.5,1999.5c-98-31,83,175,62,80"/>
	<line class="st0" x1="458.5" y1="1846.5" x2="483.5" y2="2014.5"/>
	<path class="st0" d="M159.5,1845.5c57-66,190-100,218-87"/>
	<polygon class="st0" points="359.5,1856.5 293.5,1879.5 316.5,1827.5 342.5,1823.5 	"/>
	<polygon class="st0" points="342.5,1823.5 316.5,1827.5 283.5,1779.5 301.5,1776.5 	"/>
	<polygon class="st0" points="316.5,1827.5 290.5,1883.5 279.5,1790.5 283.5,1779.5 	"/>
	<path class="st0" d="M459.5,1838.5c11-30,19.66,18.13,34,55c7,18,8.41,47.48,3,61c-12,30-21-5-21-5"/>
	<polygon class="st0" points="214.5,2067.5 154.5,1991.5 165.5,1922.5 222.5,1966.5 	"/>
	<path class="st0" d="M265.5,1827.5c0,0-59,28-91,63c-5-7,4-48,18-69s97-56,94-52S265.5,1827.5,265.5,1827.5z"/>
	<path class="st0" d="M441.5,1977.5c0,0-103,47-109,38c-16-2-86-42-110-49c18-20,28.27-49.18,57-72c44.83-35.61,108.84-58.11,171-38
		C453.5,1863.5,441.5,1977.5,441.5,1977.5z"/>
	<path class="st0" d="M340.5,1860.5c0,0,55,123,50,129"/>
	<path class="st0" d="M268.5,1984.5c58-87,151-91,175-84"/>
	<line class="st0" x1="251.5" y1="2016.5" x2="240.5" y2="2124.5"/>
	<line class="st0" x1="395.5" y1="1989.5" x2="390.5" y2="2075.5"/>
	<path class="st0" d="M383.5,1759.5c12-6,67,76,67,76"/>
	<path class="st0" d="M340.5,1797.5c16-8,58-9,58-9"/>
	<line class="st0" x1="275.5" y1="1753.5" x2="239.5" y2="1701.5"/>
	<path class="st0" d="M114.5,1797.5c19-21,61,32,61,32"/>
	<path class="st0" d="M326.5,1687.5c46,16,69,78,69,78"/>
	<path class="st0" d="M885.5,2316.5c-136-5-269-125-195-264c70-130,192.37-121.4,217-124c19.38-2.04,150.37,50.51,176.2,89.48
		c5.85,8.83-11.88,26.95-3.2,43.52c11,21,95,154,115,160c6.22,1.87-23,56.87-30,59s-137.02,50.74-152,45"/>
	<path class="st0" d="M1149.5,2149.5c3,0,3-23,3-23l-85-48l-8,25C1062.5,2114.5,1146.5,2136.5,1149.5,2149.5z"/>
	<path class="st0" d="M709.5,2069.5c33.85-22.37,187-144,327.33,8.48"/>
	<path class="st0" d="M984.5,2158.5c0,0-155-116-289,50"/>
	<path class="st0" d="M979.5,2247.5c60,27,161,33,186,33"/>
	<path class="st0" d="M1159.5,2182.5c-7,32-61,92-61,92"/>
	<path class="st0" d="M953.5,2288.5c0,0,24.09-4.66,75.65-23.05c30.35-21.95,58.55-43.46,84.35-82.95"/>
	<path class="st0" d="M1122.5,2169.5c17,16,64,78,64,78"/>
	<path class="st0" d="M854.5,2237.5c14,14,101.18,59.15,159,88"/>
	<line class="st0" x1="1071.85" y1="2122.38" x2="1116.89" y2="2175.93"/>
	<path class="st0" d="M1084.5,2274.5c0,0-80.18,38.55-105,41"/>
	<path class="st0" d="M965.5,1977.5c0,0-56,65-61,164"/>
	<path class="st0" d="M891.5,2252.5c19,0,111.23-51.97,114-58"/>
	<path class="st0" d="M1081.5,2019.5c3,15-38,140-59,163"/>
	<path class="st0" d="M871.5,2241.5c-157,6,27,112,84,69c5.31-8.17-3.82-16.81-3.82-16.81"/>
	<path class="st0" d="M1110.5,2175.5c0,0,34.19-17.52,39-26"/>
	<path class="st0" d="M965.5,2002.5c8-1,91,69,91,69"/>
	<path class="st0" d="M1073.5,1522.5c-0.25-129.93-96.62-238.82-235.41-172.85c-129.83,62.46-121.16,175.33-118.59,198.85
		c7,64,49,132,85,165c4.09,3.75,21,5,37,4c5,8,7.64,28.92,15,33c20.21,11.19,128,69,152,84c5.27,3.29,68.4-22.5,71-29
		c6-15,16-151,9-174"/>
	<polygon class="st0" points="962.5,1777.5 946.5,1784.5 893.5,1700.5 912.5,1692.5 	"/>
	<path class="st0" d="M824.5,1389.5c-9,18-81,162,66.67,298.34"/>
	<path class="st0" d="M991,1644.59c0,0-146.5-119.09-32.5-282.09"/>
	<path class="st0" d="M1021.5,1616.5c24.41,58.15,49.86,144.15,49,168"/>
	<path class="st0" d="M946.5,1799.5c39-6,106-53,106-53"/>
	<path class="st0" d="M1052.5,1625.5c0,0-1,36-13,75c-20,23-23.76,32.1-64,51"/>
	<path class="st0" d="M981.5,1778.5c15,13,46,39,46,39"/>
	<path class="st0" d="M1013.83,1512.29c13.24,13.82,44.37,69.08,70.67,125.21"/>
	<line class="st0" x1="923.5" y1="1695.5" x2="975.5" y2="1744.5"/>
	<path class="st0" d="M1057.5,1751.5c9,2,17.75-102.4,21-126"/>
	<path class="st0" d="M743.5,1642.5c0,0,74-66,176-80"/>
	<path class="st0" d="M1027.26,1548.09c-0.65,18.13-54.75,104.39-60.76,106.84"/>
	<path class="st0" d="M805.5,1715.5c34,12,180-37,203-104"/>
	<path class="st0" d="M1008.5,1495.5c11-106,96,53,71,107c-8.19,4.79-15-7-15-7"/>
	<path class="st0" d="M975.5,1744.5c0,0-1,23-9,29"/>
	<path class="st0" d="M1013.5,1443.5c4,7-1,121-1,121"/>
</g>
</svg>
